<?xml version="1.0" standalone="no"?><!DOCTYPE svg PUBLIC "-//W3C//DTD SVG 1.1//EN" "http://www.w3.org/Graphics/SVG/1.1/DTD/svg11.dtd"><svg t="1768798585459" class="icon" viewBox="0 0 1024 1024" version="1.1" xmlns="http://www.w3.org/2000/svg" p-id="11984" xmlns:xlink="http://www.w3.org/1999/xlink" width="200" height="200"><path d="M512 512m-512 0a512 512 0 1 0 1024 0 512 512 0 1 0-1024 0Z" fill="#3F51B5" p-id="11985"></path><path d="M439.56419 685.592381v28.038095h-45.738666v115.126857h-28.428191v-115.151238h-44.495238v-28.038095h118.662095v0.024381z m229.449143-0.780191c23.332571 0 61.293714 12.873143 59.806477 50.176-1.389714 35.644952-33.962667 45.884952-57.465905 46.665143h-23.210667v47.104h-27.501714v-143.993904h48.420571l-0.048762 0.048761z m-145.749333 0a70.41219 70.41219 0 0 1 64.658286 34.742858c13.55581 22.918095 13.55581 51.614476 0 74.50819a70.41219 70.41219 0 0 1-64.658286 34.767238 68.656762 68.656762 0 0 1-51.809524-19.456 72.362667 72.362667 0 0 1-18.797714-52.516571 72.43581 72.43581 0 0 1 18.797714-52.711619 68.754286 68.754286 0 0 1 51.809524-19.382857v0.048761z m0 28.769524a41.593905 41.593905 0 0 0-31.744 10.825143 44.129524 44.129524 0 0 0-10.630095 32.451048c-0.902095 11.800381 2.950095 23.454476 10.703238 32.280381 8.606476 7.972571 20.089905 11.922286 31.670857 10.898285 11.605333 0.950857 23.113143-2.998857 31.817143-10.898285a43.641905 43.641905 0 0 0 10.605714-32.353524 43.78819 43.78819 0 0 0-10.605714-32.426667 41.813333 41.813333 0 0 0-31.792762-10.825143l-0.024381 0.073143z m125.635048 0v39.350857h19.431619c20.041143 0 31.939048-6.92419 32.353523-19.090285 0.438857-10.581333-11.312762-18.944-27.696761-20.041143h-24.064l-0.024381-0.195048zM506.148571 175.34781a15.408762 15.408762 0 0 1 22.040381 0l223.134477 227.474285a16.091429 16.091429 0 0 1 3.315809 17.13981 15.555048 15.555048 0 0 1-14.140952 9.825524h-106.959238a15.701333 15.701333 0 0 0-15.530667 15.847619v169.886476c0 8.777143-6.972952 15.847619-15.555048 15.847619h-167.107047a15.701333 15.701333 0 0 1-15.530667-15.847619v-169.862095a15.701333 15.701333 0 0 0-15.555048-15.847619h-96.01219a15.530667 15.530667 0 0 1-14.457905-9.654858 16.091429 16.091429 0 0 1 3.267048-17.310476l209.091047-227.474286z" fill="#EAEAFF" p-id="11986"></path></svg>